<?xml version="1.0" standalone="no"?>
<!DOCTYPE svg PUBLIC "-//W3C//DTD SVG 1.1//EN" "http://www.w3.org/Graphics/SVG/1.1/DTD/svg11.dtd">
<svg width="100%" height="100%" viewBox="0 0 150 150" version="1.1" xmlns="http://www.w3.org/2000/svg" xmlns:xlink="http://www.w3.org/1999/xlink" xml:space="preserve" style="fill-rule:evenodd;clip-rule:evenodd;stroke-linejoin:round;stroke-miterlimit:1.41421;">
    <g transform="matrix(0.563704,0,0,0.563704,-310.838,-17.5335)">
        <g id="Layer1">
            <g>
                <g transform="matrix(7.18924,0,0,7.18924,-3612.75,-2703.45)">
                    <path d="M584.589,412.452L584.589,407.652C584.589,407.124 584.157,406.692 583.629,406.692L579.813,406.692L579.813,407.652L583.497,407.652L583.497,408.972L580.509,408.972C579.981,408.972 579.549,409.404 579.549,409.932L579.549,411.492C579.549,412.02 579.981,412.452 580.509,412.452L584.589,412.452ZM583.497,411.492L580.641,411.492L580.641,409.932L583.497,409.932L583.497,411.492Z" style="fill:rgb(213,213,213);fill-rule:nonzero;"/>
                    <path d="M591.069,412.452L591.069,408.612C591.069,407.544 590.205,406.692 589.149,406.692L586.269,406.692L586.269,412.452L587.349,412.452L587.349,407.652L589.149,407.652C589.569,407.652 589.977,408.036 589.977,408.54L589.977,412.452L591.069,412.452Z" style="fill:rgb(213,213,213);fill-rule:nonzero;"/>
                    <path d="M593.829,412.452L593.829,406.692L592.749,406.692L592.749,412.452L593.829,412.452ZM593.829,405.252L593.829,403.812L592.749,403.812L592.749,405.252L593.829,405.252Z" style="fill:rgb(213,213,213);fill-rule:nonzero;"/>
                    <path d="M601.509,406.692L595.509,406.692L595.509,412.452L596.589,412.452L596.589,407.652L598.917,407.652L598.917,412.452L600.009,412.452L600.009,407.652L601.509,407.652C601.929,407.652 602.337,408.036 602.337,408.54L602.337,412.452L603.429,412.452L603.429,408.612C603.429,407.556 602.565,406.692 601.509,406.692Z" style="fill:rgb(213,213,213);fill-rule:nonzero;"/>
                    <path d="M609.909,410.532L609.909,406.692L608.817,406.692L608.817,410.604C608.817,411.108 608.409,411.492 607.989,411.492L607.029,411.492C606.609,411.492 606.201,411.108 606.201,410.604L606.201,406.692L605.109,406.692L605.109,410.532C605.109,411.6 605.973,412.452 607.029,412.452L607.989,412.452C609.045,412.452 609.909,411.6 609.909,410.532Z" style="fill:rgb(213,213,213);fill-rule:nonzero;"/>
                    <path d="M615.909,411.492L615.909,409.932C615.909,409.404 615.477,408.972 614.949,408.972L612.561,408.972L612.561,407.652L615.825,407.652L615.825,406.692L612.429,406.692C611.901,406.692 611.469,407.124 611.469,407.652L611.469,408.972C611.469,409.5 611.901,409.932 612.429,409.932L614.817,409.932L614.817,411.492L611.661,411.492L611.661,412.452L614.949,412.452C615.477,412.452 615.909,412.02 615.909,411.492Z" style="fill:rgb(213,213,213);fill-rule:nonzero;"/>
                </g>
                <g transform="matrix(7.18924,0,0,7.18924,-3429.96,-2668.63)">
                    <path d="M581.093,412.452L581.093,410.91C581.093,410.482 580.746,410.14 580.322,410.14L579.6,410.14L579.6,408.984L579.166,408.984L579.166,412.452L579.6,412.452L579.6,410.525L580.322,410.525C580.491,410.525 580.654,410.679 580.654,410.882L580.654,412.452L581.093,412.452Z" style="fill:rgb(23,134,200);fill-rule:nonzero;"/>
                    <path d="M583.742,411.681L583.742,410.91C583.742,410.482 583.395,410.14 582.971,410.14L582.489,410.14C582.066,410.14 581.719,410.482 581.719,410.91L581.719,411.681C581.719,412.105 582.066,412.452 582.489,412.452L582.971,412.452C583.395,412.452 583.742,412.105 583.742,411.681ZM583.303,411.71C583.303,411.912 583.14,412.066 582.971,412.066L582.489,412.066C582.321,412.066 582.157,411.912 582.157,411.71L582.157,410.882C582.157,410.679 582.321,410.525 582.489,410.525L582.971,410.525C583.14,410.525 583.303,410.679 583.303,410.882L583.303,411.71Z" style="fill:rgb(23,134,200);fill-rule:nonzero;"/>
                    <path d="M586.776,410.14L584.368,410.14L584.368,412.452L584.801,412.452L584.801,410.525L585.735,410.525L585.735,412.452L586.174,412.452L586.174,410.525L586.776,410.525C586.944,410.525 587.108,410.679 587.108,410.882L587.108,412.452L587.546,412.452L587.546,410.91C587.546,410.487 587.2,410.14 586.776,410.14Z" style="fill:rgb(23,134,200);fill-rule:nonzero;"/>
                    <path d="M590.195,411.44L590.195,410.91C590.195,410.482 589.848,410.14 589.425,410.14L588.943,410.14C588.519,410.14 588.172,410.482 588.172,410.91L588.172,411.681C588.172,412.105 588.519,412.452 588.943,412.452L590.065,412.452L590.065,412.066L588.943,412.066C588.774,412.066 588.611,411.912 588.611,411.71L588.611,411.44L590.195,411.44ZM589.757,411.055L588.611,411.055L588.611,410.877C588.611,410.674 588.774,410.525 588.943,410.525L589.425,410.525C589.593,410.525 589.757,410.674 589.757,410.877L589.757,411.055Z" style="fill:rgb(23,134,200);fill-rule:nonzero;"/>
                </g>
                <g transform="matrix(0.445316,0,0,0.445316,581.661,2.49848)">
                    <g transform="matrix(0.355249,0.615309,-0.615309,0.355249,303.713,141.959)">
                        <path d="M159.746,461.096L23.927,362.299C23.927,362.299 72.28,278.67 102.441,226.506C117.047,201.244 144.014,185.685 173.195,185.685C230.248,185.685 318.754,185.685 318.754,185.685L159.746,461.096Z" style="fill:rgb(255,203,42);fill-rule:nonzero;"/>
                    </g>
                    <g transform="matrix(0.710498,0,0,0.710498,170.911,65.2368)">
                        <path d="M422.124,476.876C422.124,476.876 333.987,476.876 276.925,476.876C247.49,476.876 220.252,461.299 205.325,435.929C137.33,320.362 -51.159,0 -51.159,0L141.553,0L422.124,476.876Z" style="fill:rgb(255,203,42);fill-rule:nonzero;"/>
                    </g>
                    <g transform="matrix(0.710498,0,0,0.710498,-31.159,65.2368)">
                        <path d="M150.484,476.876L50.01,309.855L233.248,0L425.959,0L150.484,476.876Z" style="fill:rgb(23,134,200);fill-rule:nonzero;"/>
                    </g>
                    <g transform="matrix(0.919929,0,0,0.879831,39.3591,66.0562)">
                        <g opacity="0.730847">
                            <g transform="matrix(1,0,0,1,-128.271,0)">
                                <path d="M380.6,-2.068L340.831,190.48L308.032,131.608L380.6,-2.068Z" style="fill:black;fill-opacity:0.24;"/>
                            </g>
                        </g>
                    </g>
                    <g transform="matrix(0.536883,0.747011,0.714451,-0.513482,-48.7336,214.501)">
                        <g opacity="0.730847">
                            <g transform="matrix(1,0,0,1,-128.271,0)">
                                <path d="M375.199,-9.926L345.544,178.037L312.992,130.68L375.199,-9.926Z" style="fill:black;fill-opacity:0.24;"/>
                            </g>
                        </g>
                    </g>
                </g>
            </g>
        </g>
    </g>
</svg>
