<svg xmlns="http://www.w3.org/2000/svg" width="138" height="24" viewBox="0 0 138 24">
    <g fill="none" fill-rule="evenodd">
        <path fill="#303030" d="M37.878 5.117c1.52 0 2.675.63 3.462 1.889.788 1.259 1.181 2.955 1.181 5.09 0 2.043-.393 3.722-1.18 5.035-.788 1.314-1.915 1.97-3.381 1.97-1.557 0-2.652-.665-3.286-1.997.036.693.055 1.186.055 1.478V24H32.23V5.391h2.362v.274l-.001.152c-.004.378-.022.901-.053 1.572.651-1.514 1.764-2.272 3.34-2.272zm27.37.274l2.158 7.783c.09.365.154.693.19.985h.027c.072-.383.145-.712.217-.985l1.768-7.783h2.634L67.122 24h-2.309l1.712-5.911-3.91-12.698h2.633zm-8.851-.3c1.629 0 2.887.665 3.774 1.997s1.33 3 1.33 5.008c0 2.025-.443 3.703-1.33 5.035-.887 1.332-2.145 1.998-3.774 1.998-1.648 0-2.915-.666-3.802-1.998-.887-1.332-1.33-3.01-1.33-5.035 0-2.007.443-3.676 1.33-5.008.887-1.332 2.154-1.998 3.802-1.998zM8.2 1.23v2.3H2.498v5.117H8.2v2.298H2.498v5.556H8.2V18.8H0V1.231h8.2zm16.346 3.886c1.068 0 1.96.384 2.675 1.15.715.766 1.072 1.797 1.072 3.092V18.8h-2.498V9.99l-.006-.236c-.04-.691-.254-1.242-.645-1.653-.435-.456-.969-.684-1.602-.684-.652 0-1.222.237-1.711.712-.489.474-.733 1.113-.733 1.915V18.8H18.6V9.99l-.007-.236c-.039-.691-.254-1.242-.645-1.653-.434-.456-.968-.684-1.602-.684-.652 0-1.222.237-1.71.712-.49.474-.734 1.113-.734 1.915V18.8h-2.498V5.391h2.39v1.642l.116-.195c.289-.446.703-.832 1.241-1.16.616-.374 1.349-.56 2.2-.56.778 0 1.466.205 2.063.615.598.41 1.032.963 1.304 1.656.344-.693.841-1.245 1.493-1.656.652-.41 1.43-.616 2.335-.616zM48.142 0v18.8h-2.498V0h2.498zM37.308 7.334c-.76 0-1.38.433-1.86 1.3-.48.867-.72 2.02-.72 3.462 0 1.478.231 2.64.693 3.489.462.848 1.1 1.272 1.914 1.272.851 0 1.503-.442 1.955-1.327.453-.885.68-2.03.68-3.434 0-1.478-.223-2.641-.666-3.49-.444-.848-1.109-1.272-1.996-1.272zm19.089 0c-.833 0-1.471.443-1.915 1.327-.443.885-.665 2.03-.665 3.435 0 1.423.217 2.572.652 3.448.434.876 1.068 1.313 1.9 1.313.833 0 1.471-.437 1.915-1.313.443-.876.665-2.025.665-3.448 0-1.405-.217-2.545-.652-3.421-.434-.894-1.068-1.34-1.9-1.34zM91.694 5.172c1.544 0 2.616.657 3.216 1.97-.033-.663-.051-1.16-.054-1.492V5.39h2.37v12.37l-.005.35c-.058 1.735-.552 3.132-1.48 4.192C94.751 23.434 93.483 24 91.94 24c-1.145 0-2.112-.287-2.903-.862-.79-.575-1.376-1.318-1.758-2.23l1.772-1.068.069.198c.46 1.218 1.345 1.827 2.657 1.827.908 0 1.635-.337 2.18-1.012.545-.675.818-1.606.818-2.791V17.05c.005-.233.023-.552.054-.959-.654 1.204-1.753 1.806-3.298 1.806-1.417 0-2.516-.583-3.298-1.751-.78-1.168-1.172-2.7-1.172-4.598 0-1.842.441-3.366 1.322-4.57.882-1.204 1.985-1.806 3.312-1.806zm38.048.22l2.48 8.784.063.266c.058.26.1.5.128.719h.027l.044-.224c.058-.289.116-.542.174-.761l2.698-8.785H138L131.622 24h-2.861l2.262-5.911-3.925-12.698h2.644zm-25.838 0V18.8h-2.507V5.391h2.507zM110.581 0v18.8h-2.507V0h2.507zm6.678 5.391v13.41h-2.508V5.39h2.508zm6.84-3.53v3.53h2.754v2.162h-2.617V18.8h-2.507V7.553h-1.581V5.391h1.58v-3.53h2.372zM92.267 7.334c-.8 0-1.44.41-1.921 1.232-.482.82-.723 1.833-.723 3.037 0 1.223.223 2.235.668 3.038.445.803 1.077 1.204 1.894 1.204.818 0 1.458-.383 1.922-1.15.463-.766.695-1.796.695-3.092 0-1.295-.227-2.326-.682-3.092-.436-.785-1.053-1.177-1.853-1.177zM102.65.22c.4 0 .736.137 1.009.41.272.274.409.602.409.986 0 .401-.137.738-.41 1.012-.272.274-.608.41-1.008.41s-.736-.136-1.008-.41c-.273-.274-.409-.611-.409-1.012 0-.384.136-.712.409-.986.272-.273.609-.41 1.008-.41zm13.355 0c.4 0 .736.137 1.009.41.272.274.408.602.408.986 0 .401-.136.738-.408 1.012-.273.274-.609.41-1.009.41-.4 0-.736-.136-1.008-.41-.273-.274-.409-.611-.409-1.012 0-.384.136-.712.409-.986.272-.273.608-.41 1.008-.41z"/>
        <path fill="#288994" d="M80.745.923l4.463 17.282h-2.613l-1.143-4.689H76.39L73.955 24h-2.64L77.48.923h3.266zM79.03 3.442h-.054l-2.014 7.824h3.946L79.03 3.442z"/>
    </g>
</svg>
